:SAMPLES-PER-SECOND 30
:FULLY-SPECIFIED
:DEGREES
532
root  55.2862 38.6023 -1.49271 -161.566 -81.0606 160.114
RightUpLeg  -15.9655 3.0637 -10.0369
RightLeg  25.1647 5.67616 2.69685
RightFoot  -6.27569 -0.426112 8.66893
RightToes  -8.3237e-009 0 -3.6325e-017
Spine  3.96573 0.263839 -3.48612
Spine1  5.25578 0.951131 -4.35817
HEad  -15.7793 13.2332 -12.5998
LeftShoulder1  -0.25931 4.20471 -30.8413
LeftArm  3.48889 -0.583134 -42.4251
LeftForeArm  20.0812 -21.6215 -4.13974
LeftHand  -0.0196547 6.49849 1.41136
RightShoulder  -0.849102 -5.90795 28.7192
RightArm  23.2382 -7.12538 47.1971
RightForeArm  7.24234 21.7579 4.58831
RightHand  -0.0983752 5.83957 -1.34026
LeftUpLeg  -0.676525 5.14387 -5.81122
LeftLeg  15.8416 3.67891 0.586135
LeftFoot  -13.2661 0.168619 5.27098
LeftToes  -1.18267e-011 3.61711e-011 9.57411e-011
533
root  54.4097 38.6463 -1.57029 -164.077 -81.2212 162.872
RightUpLeg  -15.7212 4.56228 -10.0989
RightLeg  18.2754 6.74097 2.27274
RightFoot  -4.12585 -0.39007 5.80235
RightToes  -8.3237e-009 0 -3.6325e-017
Spine  3.6933 -0.0528096 -2.13663
Spine1  5.22602 0.867085 -4.97714
HEad  -16.1281 13.3121 -12.732
LeftShoulder1  -0.249199 4.18177 -30.5362
LeftArm  4.25225 -0.703846 -42.1243
LeftForeArm  19.9358 -23.7632 -4.03206
LeftHand  -0.0217325 6.43834 1.3393
RightShoulder  -0.857534 -5.90597 29.0918
RightArm  22.7526 -7.81076 46.8857
RightForeArm  8.37775 22.633 4.5011
RightHand  -0.0304786 5.07043 -0.64554
LeftUpLeg  1.27153 5.24772 -5.30365
LeftLeg  14.4227 3.64079 0.512212
LeftFoot  -13.8781 0.211528 5.76042
LeftToes  -1.18267e-011 3.61711e-011 9.57411e-011
534
root  53.5129 38.5957 -1.65067 -165.731 -81.6083 164.601
RightUpLeg  -15.7058 3.6362 -9.94945
RightLeg  16.5662 8.0411 2.48919
RightFoot  -0.830945 -0.489293 5.29499
RightToes  -8.3237e-009 0 -3.6325e-017
Spine  3.61503 -0.335396 -0.984575
Spine1  5.17714 0.617543 -5.05974
HEad  -16.6302 13.317 -13.483
LeftShoulder1  -0.400877 4.58196 -31.0476
LeftArm  4.85838 -1.06705 -41.5272
LeftForeArm  19.8175 -25.4954 -4.40775
LeftHand  -0.0217236 7.1557 1.04011
RightShoulder  -0.789888 -5.74111 28.6851
RightArm  21.8965 -8.23022 47.2764
RightForeArm  9.17469 21.9549 4.45736
RightHand  0.0213569 5.17905 -0.0725093
LeftUpLeg  2.89002 5.26084 -5.00666
LeftLeg  14.1513 3.64484 0.759049
LeftFoot  -15.0734 0.282512 5.91853
LeftToes  -1.18267e-011 3.61711e-011 9.57411e-011
535
root  52.6583 38.3417 -1.73325 -165.972 -81.7115 164.688
RightUpLeg  -15.6642 1.36271 -10.1218
RightLeg  20.218 10.1585 3.91199
RightFoot  -4.71187 -0.423979 6.71412
RightToes  -8.3237e-009 0 -3.6325e-017
Spine  3.06045 -0.283888 0.490997
Spine1  6.3803 0.943493 -6.20737
HEad  -17.23 12.408 -14.082
LeftShoulder1  -0.324861 4.3794 -30.9265
LeftArm  5.74022 -1.90757 -41.9457
LeftForeArm  18.8042 -25.6939 -4.51005
LeftHand  -0.02146 6.20147 1.52777
RightShoulder  -0.773567 -5.70122 28.5458
RightArm  21.4496 -7.94495 47.3481
RightForeArm  8.79401 21.307 4.50198
RightHand  -0.0497709 5.24321 -0.854865
LeftUpLeg  3.2396 4.82254 -5.31936
LeftLeg  16.8737 4.54052 1.72095
LeftFoot  -17.4489 0.384568 5.23152
LeftToes  -1.18267e-011 3.61711e-011 9.57411e-011
536
root  51.9009 38.1467 -1.69844 -173.479 -81.8737 171.769
RightUpLeg  -15.034 0.742095 -9.34746
RightLeg  22.58 10.9012 4.73006
RightFoot  -6.50682 -0.344068 7.06106
RightToes  -8.3237e-009 0 -3.6325e-017
Spine  4.64508 -0.245909 2.95308
Spine1  5.75558 1.00014 -6.07526
HEad  -17.6152 11.9196 -15.3592
LeftShoulder1  -0.379051 4.50967 -31.5048
LeftArm  6.10195 -1.80076 -42.4207
LeftForeArm  16.8893 -24.6673 -4.3796
LeftHand  -0.0173837 6.06985 2.18785
RightShoulder  -0.626035 -5.32843 27.6048
RightArm  21.8676 -8.04249 46.8724
RightForeArm  8.54065 21.6671 4.49472
RightHand  -0.0629363 5.06439 -1.00486
LeftUpLeg  2.76464 4.2732 -4.67679
LeftLeg  21.5619 5.33319 2.67963
LeftFoot  -19.1849 0.371568 3.7886
LeftToes  -1.18267e-011 3.61711e-011 9.57411e-011
537
root  51.21 37.8647 -1.59894 175.123 -82.5888 -176.891
RightUpLeg  -14.9161 0.0130049 -8.07662
RightLeg  25.42 10.882 5.38069
RightFoot  -8.70748 -0.217602 6.90457
RightToes  -8.3237e-009 0 -3.6325e-017
Spine  6.19059 -0.420343 5.66847
Spine1  5.04079 0.824219 -5.29913
HEad  -18.5616 10.7646 -16.6003
LeftShoulder1  -0.198355 4.03996 -30.9149
LeftArm  5.36087 -0.174734 -44.0984
LeftForeArm  15.3711 -23.1783 -4.25233
LeftHand  -0.0198289 6.04106 2.26709
RightShoulder  -0.548802 -5.11141 27.3609
RightArm  22.4764 -7.29236 45.0169
RightForeArm  8.12333 22.1905 4.51072
RightHand  -0.0687143 4.84947 -1.07776
LeftUpLeg  -0.0670591 4.28743 -3.1519
LeftLeg  29.886 5.37158 3.67025
LeftFoot  -20.0883 0.200287 0.975646
LeftToes  -1.18267e-011 3.61711e-011 9.57411e-011
538
root  50.5864 37.5661 -1.35413 159.09 -82.3806 -161.291
RightUpLeg  -14.2288 -1.47865 -6.53835
RightLeg  27.6165 11.8345 6.43189
RightFoot  -10.5654 -0.11941 6.89593
RightToes  -8.3237e-009 0 -3.6325e-017
Spine  9.25822 -0.558177 8.80271
Spine1  3.23096 0.738865 -3.52465
HEad  -19.5715 9.54196 -18.0237
LeftShoulder1  -0.177421 3.98 -31.1311
LeftArm  6.57162 1.68916 -44.8401
LeftForeArm  15.3817 -21.5436 -4.39513
LeftHand  -0.026809 6.1695 2.07411
RightShoulder  -0.497103 -4.97597 26.9167
RightArm  23.8689 -5.76704 42.0202
RightForeArm  6.95616 23.4673 4.66927
RightHand  -0.0124213 5.333 -0.451615
LeftUpLeg  -3.19381 5.46659 -1.26264
LeftLeg  38.8387 5.62631 5.28502
LeftFoot  -18.9469 0.0941299 -0.222401
LeftToes  -1.18267e-011 3.61711e-011 9.57411e-011
539
root  50.053 37.1421 -0.996535 142.213 -81.1585 -145.042
RightUpLeg  -13.9571 -3.08532 -4.65081
RightLeg  30.739 12.9005 7.94377
RightFoot  -12.1303 -0.0359687 6.72123
RightToes  -8.3237e-009 0 -3.6325e-017
Spine  12.2797 -1.09592 12.2415
Spine1  2.16163 0.37041 -1.67781
HEad  -21.1465 9.65902 -20.9535
LeftShoulder1  -0.136527 3.86715 -31.4577
LeftArm  7.38259 4.6392 -44.9408
LeftForeArm  17.8975 -21.0498 -4.48225
LeftHand  -0.0365851 5.89573 -0.00264068
RightShoulder  -0.386654 -4.68163 25.8258
RightArm  23.319 -2.31365 39.5176
RightForeArm  7.92807 24.8176 4.89845
RightHand  0.031417 5.53318 0.0137636
LeftUpLeg  -6.95655 6.98484 0.651145
LeftLeg  48.5736 6.36978 8.07915
LeftFoot  -17.6543 0.193544 1.55078
LeftToes  -1.18267e-011 3.61711e-011 9.57411e-011
540
root  49.5207 36.6522 -0.534092 131.648 -78.7804 -135.71
RightUpLeg  -13.484 -3.87774 -2.90449
RightLeg  34.3664 13.7427 9.68026
RightFoot  -13.555 0.0519495 7.36381
RightToes  -8.3237e-009 0 -3.6325e-017
Spine  14.7724 -1.59904 15.0689
Spine1  3.24528 -0.0566938 1.13424
HEad  -25.564 9.91612 -25.1443
LeftShoulder1  0.00427172 3.49232 -31.3948
LeftArm  6.63453 8.13213 -45.4201
LeftForeArm  21.6884 -20.3087 -4.60764
LeftHand  -0.0357791 5.80921 -0.937941
RightShoulder  -0.369723 -4.67043 24.6853
RightArm  20.6469 3.69528 37.2038
RightForeArm  8.87215 26.3505 5.19377
RightHand  -0.00428173 4.5982 -0.317849
LeftUpLeg  -9.87906 9.4475 2.43779
LeftLeg  56.7249 4.98455 8.56553
LeftFoot  -18.0116 0.239185 2.25412
LeftToes  -1.18267e-011 3.61711e-011 9.57411e-011
541
root  49.0224 36.0371 -0.043391 126.08 -77.201 -131.254
RightUpLeg  -13.6317 -4.17747 -2.36504
RightLeg  38.8503 13.7946 11.4019
RightFoot  -15.6774 0.221033 8.63775
RightToes  -8.3237e-009 0 -3.6325e-017
Spine  18.3298 -2.23722 15.9727
Spine1  2.62977 -0.804027 4.68036
HEad  -28.6724 10.6356 -28.1155
LeftShoulder1  0.135694 3.13876 -31.1006
LeftArm  7.13935 12.3856 -44.7763
LeftForeArm  23.8235 -19.2978 -5.0682
LeftHand  -0.0409639 6.27754 -1.14988
RightShoulder  -0.542045 -5.19218 25.3047
RightArm  18.2824 11.5237 33.8958
RightForeArm  8.61045 28.0331 5.5943
RightHand  -0.112391 5.06175 -1.55746
LeftUpLeg  -13.1053 12.48 3.02133
LeftLeg  63.1446 2.95672 7.02744
LeftFoot  -18.3312 0.211263 1.6487
LeftToes  -1.18267e-011 3.61711e-011 9.57411e-011
542
root  48.5124 35.3845 0.432261 124.607 -76.5428 -130.49
RightUpLeg  -14.3077 -4.30883 -3.12096
RightLeg  43.4917 13.7249 13.2867
RightFoot  -18.0454 0.444262 9.65869
RightToes  -8.3237e-009 0 -3.6325e-017
Spine  20.2828 -2.25274 14.725
Spine1  3.34316 -1.67919 8.9983
HEad  -32.2128 10.679 -29.252
LeftShoulder1  0.283493 2.73853 -30.9216
LeftArm  5.81082 16.0167 -43.4086
LeftForeArm  28.0943 -18.068 -5.53358
LeftHand  -0.053932 5.86844 -2.63818
RightShoulder  -0.662552 -5.53671 25.9194
RightArm  14.1624 19.9994 31.7129
RightForeArm  10.4596 29.245 5.77887
RightHand  -0.0459598 4.99789 -0.818794
LeftUpLeg  -16.7462 16.4668 2.45023
LeftLeg  67.8008 2.40618 7.30818
LeftFoot  -18.0696 0.139025 0.522898
LeftToes  -1.18267e-011 3.61711e-011 9.57411e-011
543
root  48.0759 34.6766 0.919847 121.126 -76.3794 -127.699
RightUpLeg  -14.8555 -4.04422 -3.93537
RightLeg  47.7992 12.8813 14.4669
RightFoot  -20.5148 0.709178 10.5574
RightToes  -8.3237e-009 0 -3.6325e-017
Spine  21.7226 -2.39917 13.9611
Spine1  4.79856 -2.60997 12.1126
HEad  -33.8786 11.3504 -29.9658
LeftShoulder1  0.298249 2.69826 -30.9293
LeftArm  3.2877 18.125 -41.1318
LeftForeArm  31.4355 -17.2953 -5.60568
LeftHand  -0.122612 7.48136 -3.92175
RightShoulder  -0.714074 -5.68481 26.0542
RightArm  7.74156 27.3115 31.3795
RightForeArm  12.5744 30.6389 5.99868
RightHand  -0.0879403 5.05914 -1.27613
LeftUpLeg  -20.9931 19.3498 2.12769
LeftLeg  72.1527 2.14346 8.44571
LeftFoot  -18.1136 0.122571 0.240696
LeftToes  -1.18267e-011 3.61711e-011 9.57411e-011
544
root  47.6526 33.932 1.40996 116.777 -76.4403 -124.409
RightUpLeg  -14.7487 -3.20712 -4.89999
RightLeg  51.7079 11.7684 15.1823
RightFoot  -23.2481 1.02085 11.271
RightToes  -8.3237e-009 0 -3.6325e-017
Spine  23.7395 -2.48343 13.8403
Spine1  5.87247 -2.86833 13.2941
HEad  -35.2224 10.0056 -30.0352
LeftShoulder1  0.349927 2.53488 -30.0185
LeftArm  0.0471907 19.4982 -38.428
LeftForeArm  31.4509 -17.8996 -4.86461
LeftHand  0.00887644 3.82962 -2.06657
RightShoulder  -0.861464 -6.03065 27.4945
RightArm  2.0356 33.1446 30.7044
RightForeArm  12.9307 33.6031 6.74049
RightHand  -0.185668 5.47692 -2.29732
LeftUpLeg  -25.4305 20.7622 2.64679
LeftLeg  76.7375 1.49468 8.8053
LeftFoot  -18.461 0.0926809 -0.293419
LeftToes  -1.18267e-011 3.61711e-011 9.57411e-011
